<?xml version="1.0" encoding="UTF-8"?>
<svg width="37" height="32" viewBox="0 0 37 32" fill="none" xmlns="http://www.w3.org/2000/svg">
<path fill-rule="evenodd" clip-rule="evenodd" d="M30.9648 30.1296H32.7651C34.0364 30.1296 34.831 28.7534 34.1953 27.6524L26.6771 14.6305C26.0415 13.5295 24.4524 13.5295 23.8167 14.6305L16.2985 27.6524C15.7213 28.6522 16.3234 29.8789 17.3909 30.096H30.7621C30.8306 30.1078 30.8982 30.119 30.9648 30.1296ZM14.9328 30.096C14.3874 29.1535 14.309 27.9408 14.9312 26.863L22.4494 13.8411C23.0832 12.7434 24.2015 12.2053 25.3104 12.2266L23.66 9.36797C22.5788 7.49532 19.8759 7.49532 18.7947 9.36796L9.25999 25.8826C8.17882 27.7552 9.53029 30.096 11.6926 30.096H14.9328ZM17.2537 31.6748H5.66287C2.07874 31.6748 -0.161345 27.7949 1.63072 24.6909L13.9646 3.32796C15.7567 0.224013 20.2369 0.224011 22.0289 3.32796L25.7827 9.88706L34.562 25.0932C34.8746 25.5806 35.129 26.0356 35.3297 26.4597L35.5626 26.863C36.8059 29.0165 35.2518 31.7084 32.7651 31.7084H17.7287C17.5662 31.7084 17.4077 31.6969 17.2537 31.6748ZM7.89273 25.0932C6.90554 26.8031 7.21671 28.7628 8.32029 30.0961H5.66287C3.29408 30.0961 1.81359 27.5318 2.99798 25.4803L15.3319 4.11735C16.5163 2.06592 19.4773 2.06592 20.6617 4.11735L22.0106 6.45382C20.2941 6.14815 18.4217 6.8564 17.4274 8.57858L7.89273 25.0932Z" fill="url(#paint0_linear_366_229)"/>
<path d="M30.9648 30.1296L30.9255 30.3765L30.945 30.3796H30.9648V30.1296ZM34.1953 27.6524L33.9788 27.7774L34.1953 27.6524ZM26.6771 14.6305L26.4606 14.7555L26.6771 14.6305ZM23.8167 14.6305L24.0332 14.7555L23.8167 14.6305ZM16.2985 27.6524L16.082 27.5274L16.2985 27.6524ZM17.3909 30.096L17.3411 30.341L17.3658 30.346H17.3909V30.096ZM30.7621 30.096L30.8044 29.8496L30.7834 29.846H30.7621V30.096ZM14.9312 26.863L14.7147 26.738L14.9312 26.863ZM14.9328 30.096V30.346H15.3663L15.1492 29.9708L14.9328 30.096ZM22.4494 13.8411L22.2329 13.7161L22.4494 13.8411ZM25.3104 12.2266L25.3056 12.4766L25.7483 12.4851L25.5269 12.1016L25.3104 12.2266ZM23.66 9.36797L23.4435 9.49297L23.66 9.36797ZM18.7947 9.36796L18.5782 9.24296L18.7947 9.36796ZM9.25999 25.8826L9.4765 26.0076L9.25999 25.8826ZM17.2537 31.6748L17.2892 31.4274L17.2716 31.4248H17.2537V31.6748ZM1.63072 24.6909L1.84723 24.8159L1.63072 24.6909ZM13.9646 3.32796L13.7481 3.20296L13.9646 3.32796ZM22.0289 3.32796L22.2459 3.20378L22.2455 3.20296L22.0289 3.32796ZM25.7827 9.88706L25.5657 10.0112L25.5662 10.0121L25.7827 9.88706ZM34.562 25.0932L34.3452 25.2183L34.3515 25.2282L34.562 25.0932ZM35.3297 26.4597L35.1038 26.5667L35.1081 26.5759L35.1132 26.5847L35.3297 26.4597ZM35.5626 26.863L35.3461 26.988L35.5626 26.863ZM8.32029 30.0961V30.3461H8.85176L8.51288 29.9366L8.32029 30.0961ZM7.89273 25.0932L8.10924 25.2182L7.89273 25.0932ZM2.99798 25.4803L2.78148 25.3553L2.99798 25.4803ZM15.3319 4.11735L15.5484 4.24235L15.3319 4.11735ZM20.6617 4.11735L20.4452 4.24235L20.6617 4.11735ZM22.0106 6.45382L21.9668 6.69994L22.4958 6.79414L22.2271 6.32882L22.0106 6.45382ZM17.4274 8.57858L17.2109 8.45358L17.4274 8.57858ZM30.9648 30.3796H32.7651V29.8796H30.9648V30.3796ZM32.7651 30.3796C34.2289 30.3796 35.1437 28.7951 34.4118 27.5274L33.9788 27.7774C34.5182 28.7117 33.844 29.8796 32.7651 29.8796V30.3796ZM34.4118 27.5274L26.8936 14.5055L26.4606 14.7555L33.9788 27.7774L34.4118 27.5274ZM26.8936 14.5055C26.1618 13.2379 24.3321 13.2379 23.6002 14.5055L24.0332 14.7555C24.5726 13.8212 25.9212 13.8212 26.4606 14.7555L26.8936 14.5055ZM23.6002 14.5055L16.082 27.5274L16.515 27.7774L24.0332 14.7555L23.6002 14.5055ZM16.082 27.5274C15.4168 28.6796 16.1114 30.0909 17.3411 30.341L17.4408 29.851C16.5354 29.6669 16.0258 28.6248 16.515 27.7774L16.082 27.5274ZM17.3909 30.346H30.7621V29.846H17.3909V30.346ZM30.7197 30.3424C30.7892 30.3544 30.8578 30.3657 30.9255 30.3765L31.0042 29.8827C30.9386 29.8723 30.872 29.8613 30.8044 29.8496L30.7197 30.3424ZM14.7147 26.738C14.0445 27.899 14.1297 29.2072 14.7164 30.2212L15.1492 29.9708C14.6452 29.0997 14.5735 27.9827 15.1477 26.988L14.7147 26.738ZM22.2329 13.7161L14.7147 26.738L15.1477 26.988L22.666 13.9661L22.2329 13.7161ZM25.3152 11.9767C24.1224 11.9537 22.9157 12.5336 22.2329 13.7161L22.666 13.9661C23.2507 12.9532 24.2806 12.4568 25.3056 12.4766L25.3152 11.9767ZM25.5269 12.1016L23.8765 9.24297L23.4435 9.49297L25.0939 12.3516L25.5269 12.1016ZM23.8765 9.24297C22.6991 7.20365 19.7556 7.20365 18.5782 9.24296L19.0112 9.49296C19.9962 7.78699 22.4585 7.78699 23.4435 9.49297L23.8765 9.24297ZM18.5782 9.24296L9.04349 25.7576L9.4765 26.0076L19.0112 9.49296L18.5782 9.24296ZM9.04349 25.7576C7.86609 27.7969 9.33784 30.346 11.6926 30.346V29.846C9.72274 29.846 8.49155 27.7136 9.4765 26.0076L9.04349 25.7576ZM11.6926 30.346H14.9328V29.846H11.6926V30.346ZM17.2537 31.4248H5.66287V31.9248H17.2537V31.4248ZM5.66287 31.4248C2.27119 31.4248 0.151386 27.7532 1.84723 24.8159L1.41422 24.5659C-0.474077 27.8366 1.88629 31.9248 5.66287 31.9248V31.4248ZM1.84723 24.8159L14.1811 3.45296L13.7481 3.20296L1.41422 24.5659L1.84723 24.8159ZM14.1811 3.45296C15.877 0.51568 20.1166 0.515678 21.8124 3.45296L22.2455 3.20296C20.3572 -0.0676556 15.6364 -0.0676533 13.7481 3.20296L14.1811 3.45296ZM21.812 3.45214L25.5657 10.0112L25.9997 9.76288L22.2459 3.20379L21.812 3.45214ZM25.5662 10.0121L34.3454 25.2182L34.7785 24.9682L25.9992 9.76206L25.5662 10.0121ZM34.3515 25.2282C34.6594 25.7081 34.9083 26.1537 35.1038 26.5667L35.5557 26.3528C35.3497 25.9175 35.0899 25.4531 34.7724 24.9582L34.3515 25.2282ZM35.7791 26.738L35.5463 26.3347L35.1132 26.5847L35.3461 26.988L35.7791 26.738ZM32.7651 31.9584C35.4442 31.9584 37.1186 29.0582 35.7791 26.738L35.3461 26.988C36.4932 28.9749 35.0593 31.4584 32.7651 31.4584V31.9584ZM17.7287 31.9584H32.7651V31.4584H17.7287V31.9584ZM17.2182 31.9223C17.384 31.9461 17.5544 31.9584 17.7287 31.9584V31.4584C17.578 31.4584 17.4314 31.4477 17.2892 31.4274L17.2182 31.9223ZM8.51288 29.9366C7.47019 28.677 7.17864 26.83 8.10924 25.2182L7.67623 24.9682C6.63244 26.7761 6.96323 28.8486 8.12771 30.2555L8.51288 29.9366ZM5.66287 30.3461H8.32029V29.8461H5.66287V30.3461ZM2.78148 25.3553C1.50086 27.5734 3.10163 30.3461 5.66287 30.3461V29.8461C3.48653 29.8461 2.12632 27.4901 3.21449 25.6053L2.78148 25.3553ZM15.1154 3.99235L2.78148 25.3553L3.21449 25.6053L15.5484 4.24235L15.1154 3.99235ZM20.8782 3.99235C19.5976 1.77425 16.396 1.77425 15.1154 3.99235L15.5484 4.24235C16.6366 2.35759 19.357 2.35759 20.4452 4.24235L20.8782 3.99235ZM22.2271 6.32882L20.8782 3.99235L20.4452 4.24235L21.7941 6.57882L22.2271 6.32882ZM17.644 8.70358C18.5812 7.08017 20.345 6.41114 21.9668 6.69994L22.0545 6.20769C20.2433 5.88516 18.2623 6.63263 17.2109 8.45358L17.644 8.70358ZM8.10924 25.2182L17.644 8.70358L17.2109 8.45358L7.67623 24.9682L8.10924 25.2182Z" fill="url(#paint1_linear_366_229)"/>
<defs>
<linearGradient id="paint0_linear_366_229" x1="9.5" y1="7.5" x2="40.5" y2="32" gradientUnits="userSpaceOnUse">
<stop offset="0.220201" stop-color="#625FF5"/>
<stop offset="1"/>
</linearGradient>
<linearGradient id="paint1_linear_366_229" x1="15.5" y1="15" x2="36" y2="32" gradientUnits="userSpaceOnUse">
<stop stop-color="#625FF5"/>
<stop offset="1"/>
</linearGradient>
</defs>
</svg>
